HIERARCHY
ROOT Hips
{
	OFFSET 0.000000 0.000000 0.000000
	CHANNELS 6 Xposition Yposition Zposition Zrotation Yrotation Xrotation 
	JOINT LHipJoint
	{
		OFFSET 0.000000 0.000000 0.000000
		CHANNELS 3 Zrotation Yrotation Xrotation
		JOINT LeftUpLeg
		{
			OFFSET 1.363060 -1.794630 0.839290
			CHANNELS 3 Zrotation Yrotation Xrotation
			JOINT LeftLeg
			{
				OFFSET 2.448110 -6.726130 0.000000
				CHANNELS 3 Zrotation Yrotation Xrotation
				JOINT LeftFoot
				{
					OFFSET 2.562200 -7.039590 0.000000
					CHANNELS 3 Zrotation Yrotation Xrotation
					JOINT LeftToeBase
					{
						OFFSET 0.157640 -0.433110 2.322550
						CHANNELS 3 Zrotation Yrotation Xrotation
						End Site
						{
							OFFSET 0.000000 0.000000 0.000000
						}
					}
				}
			}
		}
	}
	JOINT RHipJoint
	{
		OFFSET 0.000000 0.000000 0.000000
		CHANNELS 3 Zrotation Yrotation Xrotation
		JOINT RightUpLeg
		{
			OFFSET -1.305520 -1.794630 0.839290
			CHANNELS 3 Zrotation Yrotation Xrotation
			JOINT RightLeg
			{
				OFFSET -2.542530 -6.985550 0.000000
				CHANNELS 3 Zrotation Yrotation Xrotation
				JOINT RightFoot
				{
					OFFSET -2.568260 -7.056230 0.000000
					CHANNELS 3 Zrotation Yrotation Xrotation
					JOINT RightToeBase
					{
						OFFSET -0.164730 -0.452590 2.363150
						CHANNELS 3 Zrotation Yrotation Xrotation
						End Site
						{
							OFFSET 0.000000 0.000000 0.000000
						}
					}
				}
			}
		}
	}
}
MOTION
Frames: 34
Frame Time: 0.008333
5.265812 17.398928 0.578639 1.941817 -78.162027 7.721207 -10.935683 1.684348 1.869189 -5.690649 9.654579 -13.285802 -2.518078 -1.385213 -2.188875 0.036341 1.832798 4.981152 0.710600 0.000000 -31.480700 9.476740 -2.664440 1.876195 7.575829 -6.523743 -7.766404 2.099344 1.488316 -2.957891 -1.327898 -10.659087 -2.214617 -2.478700 0.000000 -27.493600
5.259764 17.387716 0.581138 1.283898 -77.779377 8.234883 -10.935328 1.701054 1.891051 -5.492080 9.521078 -13.065859 -2.506233 -1.375603 -2.341628 0.011264 1.535370 4.911228 0.644600 -0.000000 -31.821400 9.463753 -2.637257 1.803665 7.718746 -6.592547 -7.451336 2.082483 1.504244 -2.954153 -1.397665 -11.056430 -2.433945 -2.504800 -0.000000 -27.493000
5.254314 17.378199 0.583574 0.727318 -77.490028 8.687351 -10.939369 1.717358 1.909963 -5.316987 9.419753 -12.891491 -2.495792 -1.366483 -2.492275 -0.009727 1.277687 4.858469 0.588300 -0.000000 -32.124300 9.447289 -2.609257 1.744269 7.851566 -6.638102 -7.184104 2.071170 1.525135 -2.998386 -1.465770 -11.385683 -2.585567 -2.519200 -0.000000 -27.495600
5.249055 17.370740 0.585878 0.264579 -77.292946 9.089759 -10.946680 1.733682 1.927228 -5.169851 9.353179 -12.767368 -2.487587 -1.358552 -2.638894 -0.026937 1.060953 4.827186 0.541700 -0.000000 -32.380600 9.429039 -2.582144 1.700104 7.971590 -6.664720 -6.975530 2.065763 1.549636 -3.078956 -1.528441 -11.639979 -2.672204 -2.524200 0.000000 -27.501900
5.243771 17.365535 0.588010 -0.111521 -77.185140 9.448157 -10.956286 1.750724 1.943330 -5.053418 9.323821 -12.693903 -2.482163 -1.351951 -2.778634 -0.040685 0.883956 4.818737 0.504400 -0.000001 -32.584900 9.410385 -2.556602 1.671589 8.076530 -6.675726 -6.831462 2.066130 1.576293 -3.181610 -1.581909 -11.817624 -2.700913 -2.522700 0.000000 -27.512200
5.238535 17.362562 0.590007 -0.409796 -77.162351 9.765069 -10.967445 1.769201 1.958262 -4.968979 9.333051 -12.667944 -2.479766 -1.346471 -2.909031 -0.051297 0.743671 4.831915 0.475300 -0.000000 -32.734700 9.392287 -2.532512 1.657768 8.164154 -6.673526 -6.752660 2.071714 1.603622 -3.290766 -1.623003 -11.921451 -2.682654 -2.517600 -0.000000 -27.527100
5.233361 17.361587 0.591913 -0.637830 -77.219310 10.042217 -10.979717 1.789762 1.971484 -4.915297 9.380610 -12.682352 -2.480307 -1.341702 -3.027914 -0.059005 0.636537 4.862845 0.453300 -0.000000 -32.831301 9.375233 -2.509471 1.656614 8.233528 -6.659159 -6.734678 2.081684 1.630217 -3.391983 -1.649017 -11.957738 -2.629730 -2.511300 0.000000 -27.547800
5.228455 17.362265 0.593826 -0.803973 -77.350055 10.278074 -10.992915 1.812900 1.982163 -4.890009 9.465318 -12.726896 -2.483428 -1.337124 -3.133701 -0.064003 0.558594 4.905383 0.437300 -0.000000 -32.878500 9.359352 -2.486776 1.665425 8.283695 -6.633489 -6.768672 2.095066 1.654875 -3.473080 -1.658882 -11.934012 -2.555508 -2.505100 -0.000001 -27.576201
5.224169 17.364129 0.595850 -0.917589 -77.548205 10.470693 -11.007000 1.838626 1.989166 -4.889380 9.584264 -12.789499 -2.488467 -1.332206 -3.225808 -0.066323 0.507117 4.952329 0.426400 -0.000000 -32.882800 9.344447 -2.463599 1.681114 8.314635 -6.596389 -6.842989 2.110777 1.676577 -3.525407 -1.652617 -11.859563 -2.472096 -2.499701 0.000000 -27.615100
5.220681 17.366640 0.598153 -0.987110 -77.807100 10.620656 -11.021990 1.866947 1.991919 -4.908507 9.733049 -12.858558 -2.494689 -1.326675 -3.304398 -0.065944 0.480262 4.996117 0.420100 0.000001 -32.852300 9.330277 -2.439579 1.701320 8.326819 -6.547170 -6.945254 2.127837 1.694791 -3.544771 -1.631277 -11.743333 -2.389472 -2.494800 -0.000000 -27.667500
5.218326 17.369327 0.600883 -1.024896 -78.120381 10.730792 -11.037919 1.897448 1.989939 -4.942398 9.906919 -12.923731 -2.501261 -1.320343 -3.369918 -0.062808 0.476966 5.029663 0.417900 -0.000000 -32.796200 9.316441 -2.414430 1.724243 8.321500 -6.484229 -7.063455 2.145380 1.709299 -3.530721 -1.597410 -11.594332 -2.315149 -2.489800 -0.000000 -27.737200
5.217145 17.371733 0.604120 -1.038437 -78.481719 10.803945 -11.054617 1.929834 1.983666 -4.986541 10.100296 -12.977677 -2.507584 -1.313426 -3.423706 -0.056854 0.497075 5.046662 0.419600 -0.000001 -32.723600 9.302765 -2.388430 1.749296 8.300322 -6.406159 -7.188020 2.162746 1.720318 -3.486310 -1.553318 -11.420022 -2.253928 -2.483700 0.000001 -27.827900
5.217100 17.373505 0.608040 -1.038037 -78.884371 10.847833 -11.071879 1.963668 1.973908 -5.036878 10.308296 -13.015707 -2.513213 -1.306324 -3.467257 -0.048145 0.540058 5.042756 0.425300 -0.000000 -32.643500 9.289157 -2.362264 1.776809 8.265261 -6.311811 -7.311556 2.179611 1.728355 -3.417497 -1.502153 -11.225795 -2.207445 -2.475400 -0.000001 -27.942800
5.218098 17.374430 0.612643 -1.030581 -79.322771 10.867801 -11.089381 1.998568 1.961676 -5.090894 10.528156 -13.037035 -2.518089 -1.299506 -3.501514 -0.036943 0.603923 5.015335 0.434300 -0.000000 -32.562500 9.275597 -2.336707 1.808233 8.218209 -6.198221 -7.430649 2.195538 1.733922 -3.329127 -1.446191 -11.018212 -2.177212 -2.464400 -0.000000 -28.084300
5.219978 17.374378 0.618045 -1.028522 -79.790245 10.876399 -11.106792 2.033834 1.948575 -5.145710 10.755885 -13.042523 -2.522056 -1.293625 -3.528167 -0.023460 0.687845 4.963408 0.446700 -0.000000 -32.487100 9.262192 -2.312959 1.844644 8.162023 -6.068375 -7.543295 2.211018 1.737805 -3.230261 -1.387760 -10.797181 -2.159951 -2.449301 0.000000 -28.252999
5.222217 17.373332 0.624166 -1.032252 -80.282128 10.879236 -11.123759 2.069706 1.936135 -5.201356 10.991683 -13.036061 -2.525677 -1.289312 -3.548543 -0.008202 0.788195 4.888393 0.461700 0.000000 -32.420500 9.249124 -2.292208 1.888571 8.098515 -5.920067 -7.651663 2.225947 1.740599 -3.124261 -1.328094 -10.566528 -2.154890 -2.430400 -0.000000 -28.449700
5.224573 17.371430 0.631010 -1.053392 -80.792399 10.889024 -11.140126 2.105852 1.925935 -5.256630 11.234143 -13.021925 -2.529128 -1.286991 -3.563400 0.008370 0.901642 4.792345 0.478600 0.000000 -32.365000 9.236449 -2.275484 1.940830 8.030632 -5.759021 -7.757399 2.241221 1.743041 -3.018032 -1.268235 -10.323024 -2.157713 -2.406500 -0.000000 -28.670701
5.226643 17.368783 0.638486 -1.094102 -81.317438 10.911887 -11.155784 2.142751 1.919248 -5.312779 11.485005 -13.005696 -2.533043 -1.286998 -3.573915 0.025721 1.023941 4.679007 0.496700 0.000000 -32.320200 9.224224 -2.263496 2.003065 7.959779 -5.585754 -7.865291 2.257004 1.745481 -2.911811 -1.207965 -10.068161 -2.166809 -2.378600 -0.000000 -28.913700
5.228077 17.365614 0.646474 -1.156461 -81.852834 10.953047 -11.170738 2.180874 1.917209 -5.370261 11.744539 -12.991816 -2.537824 -1.289434 -3.580753 0.043407 1.151416 4.552512 0.515200 0.000001 -32.285201 9.212490 -2.256658 2.075590 7.887605 -5.404848 -7.978928 2.273833 1.748304 -2.806465 -1.147270 -9.799896 -2.180180 -2.346500 0.000000 -29.173800
5.228590 17.362145 0.654835 -1.241850 -82.395155 11.016961 -11.185084 2.220801 1.920561 -5.430542 12.013733 -12.984882 -2.543948 -1.294302 -3.584726 0.061004 1.280310 4.416984 0.533400 -0.000001 -32.257600 9.201184 -2.255058 2.158490 7.815116 -5.219193 -8.102513 2.291909 1.751632 -2.699890 -1.085459 -9.518757 -2.196950 -2.311400 0.000000 -29.446000
5.228061 17.358525 0.663432 -1.352187 -82.939871 11.106295 -11.199065 2.262628 1.928989 -5.493570 12.292506 -12.985688 -2.551509 -1.301245 -3.585934 0.078199 1.407561 4.276260 0.551000 0.000000 -32.235599 9.190223 -2.258361 2.249796 7.743352 -5.034850 -8.237055 2.311519 1.755174 -2.589086 -1.021798 -9.223089 -2.216890 -2.273400 -0.000000 -29.725600
5.226575 17.354930 0.672097 -1.484946 -83.483531 11.217106 -11.212867 2.306303 1.941445 -5.559564 12.579891 -12.992840 -2.560416 -1.309755 -3.585350 0.094897 1.531977 4.133820 0.567500 0.000000 -32.216400 9.179555 -2.265595 2.346710 7.672513 -4.856185 -8.382651 2.332488 1.758306 -2.468722 -0.955632 -8.913876 -2.241196 -2.233400 -0.000000 -30.008900
5.223987 17.351497 0.680670 -1.629683 -84.024048 11.344484 -11.226429 2.352033 1.957686 -5.630689 12.874753 -13.010523 -2.571038 -1.319627 -3.582280 0.110977 1.652315 3.992525 0.583000 -0.000000 -32.196100 9.169115 -2.276118 2.449220 7.602005 -4.679513 -8.543026 2.354123 1.760964 -2.335086 -0.887287 -8.597607 -2.271447 -2.193500 -0.000000 -30.289700
5.220776 17.348241 0.689040 -1.787206 -84.556875 11.482034 -11.240039 2.398431 1.974552 -5.704656 13.174139 -13.029781 -2.582528 -1.329981 -3.578384 0.126624 1.769760 3.854572 0.597601 -0.000000 -32.173600 9.158944 -2.288253 2.551285 7.531682 -4.512702 -8.711995 2.376202 1.761832 -2.183423 -0.816399 -8.273360 -2.309028 -2.153400 0.000000 -30.566800
5.216989 17.345227 0.697118 -1.943275 -85.079682 11.618060 -11.253566 2.444843 1.990435 -5.781510 13.474940 -13.048478 -2.594666 -1.340449 -3.573971 0.142026 1.885917 3.721514 0.611700 -0.000000 -32.146100 9.149233 -2.301060 2.650617 7.460930 -4.354847 -8.887680 2.397980 1.760394 -2.011474 -0.743679 -7.946047 -2.354730 -2.114100 0.000000 -30.837301
5.212956 17.342450 0.704806 -2.089155 -85.590031 11.742006 -11.266892 2.490008 2.003120 -5.860177 13.773625 -13.061902 -2.606920 -1.350567 -3.569479 0.157417 2.002651 3.593835 0.625700 0.000000 -32.112700 9.140219 -2.313341 2.744146 7.388679 -4.206248 -9.065953 2.418798 1.756082 -1.819138 -0.669992 -7.619418 -2.409068 -2.076000 0.000001 -31.100000
5.209003 17.339871 0.712109 -2.217565 -86.085926 11.844358 -11.279983 2.532589 2.010149 -5.938695 14.067083 -13.064091 -2.618646 -1.359850 -3.566069 0.173028 2.121876 3.472179 0.639800 -0.000000 -32.072200 9.132115 -2.323995 2.828279 7.314856 -4.068639 -9.240722 2.438231 1.748332 -1.607531 -0.596377 -7.295440 -2.471056 -2.038900 0.000000 -31.353500
5.205210 17.337527 0.718979 -2.305956 -86.567179 11.906285 -11.292074 2.572136 2.012102 -6.019048 14.350941 -13.059516 -2.629829 -1.368504 -3.563132 0.189273 2.247532 3.356284 0.654900 0.000000 -32.021800 9.125306 -2.332756 2.904897 7.238303 -3.934926 -9.413428 2.455604 1.737956 -1.384087 -0.524873 -6.981284 -2.537726 -2.003600 0.000000 -31.596200
5.201890 17.335346 0.725444 -2.356622 -87.032395 11.925143 -11.303473 2.607484 2.006299 -6.097103 14.623950 -13.039147 -2.639660 -1.375941 -3.562029 0.206200 2.379575 3.246072 0.670800 0.000000 -31.963800 9.119909 -2.338750 2.969781 7.159667 -3.810221 -9.574357 2.471035 1.724558 -1.152787 -0.456162 -6.674731 -2.606035 -1.968799 -0.000000 -31.828000
5.198958 17.333334 0.731599 -2.364353 -87.481581 11.899872 -11.314035 2.638414 1.993104 -6.172568 14.885800 -13.007197 -2.648266 -1.382283 -3.561059 0.223780 2.517476 3.140490 0.687300 -0.000000 -31.898200 9.115886 -2.342247 3.024515 7.079619 -3.690715 -9.722367 2.484548 1.709210 -0.923069 -0.391630 -6.379059 -2.671711 -1.934400 -0.000000 -32.046600
5.196294 17.331529 0.737415 -2.294521 -87.916142 11.799072 -11.322900 2.665556 1.974766 -6.247279 15.130410 -12.965826 -2.655464 -1.388042 -3.563501 0.242593 2.667156 3.040881 0.705800 -0.000001 -31.822600 9.113819 -2.343469 3.071680 6.996959 -3.572394 -9.857611 2.496096 1.693239 -0.705868 -0.332623 -6.096218 -2.729238 -1.900200 0.000000 -32.252900
5.193909 17.329932 0.743041 -2.189863 -88.334405 11.665290 -11.331022 2.688397 1.950634 -6.318243 15.364932 -12.920192 -2.661688 -1.392914 -3.562933 0.261679 2.818837 2.944117 0.724400 0.000000 -31.742000 9.112610 -2.343245 3.112132 6.915492 -3.455058 -9.976736 2.506374 1.677445 -0.508592 -0.279890 -5.827084 -2.774745 -1.865700 0.000000 -32.442000
5.191665 17.328579 0.748445 -1.988371 -88.738934 11.437843 -11.337154 2.708193 1.923776 -6.387704 15.581945 -12.870484 -2.666633 -1.397496 -3.564989 0.281840 2.980611 2.852772 0.744600 -0.000001 -31.653699 9.113270 -2.341704 3.148539 6.833189 -3.336177 -10.080137 2.515381 1.663092 -0.340908 -0.233981 -5.571290 -2.803363 -1.830599 0.000000 -32.616900
5.189340 17.327494 0.753753 -1.740496 -89.127830 11.169699 -11.342287 2.725018 1.895088 -6.453842 15.788338 -12.825339 -2.671008 -1.401753 -3.562516 0.302045 3.142391 2.763679 0.764500 -0.000000 -31.562301 9.114478 -2.340306 3.183648 6.753740 -3.213929 -10.167992 2.523809 1.651166 -0.208556 -0.195058 -5.330857 -2.812997 -1.795000 0.000000 -32.773001
